Coordinates
version=1
nRows=17
nColumns=38
inDegrees=yes

Units are S.I. units (second, meters, Newtons, ...)
Angles are in degrees.

endheader
time	pelvis_tilt	pelvis_list	pelvis_rotation	pelvis_tx	pelvis_ty	pelvis_tz	hip_flexion_r	hip_adduction_r	hip_rotation_r	knee_angle_r	ankle_angle_r	subtalar_angle_r	mtp_angle_r	hip_flexion_l	hip_adduction_l	hip_rotation_l	knee_angle_l	ankle_angle_l	subtalar_angle_l	mtp_angle_l	lumbar_extension	lumbar_bending	lumbar_rotation	arm_flex_r	arm_add_r	arm_rot_r	elbow_flex_r	pro_sup_r	wrist_flex_r	wrist_dev_r	arm_flex_l	arm_add_l	arm_rot_l	elbow_flex_l	pro_sup_l	wrist_flex_l	wrist_dev_l
      2.02000000	     -1.19326657	     -6.01094557	      2.64799095	      0.85838408	      0.92239470	     -0.29919622	     26.08996907	      8.48169525	     -6.56427143	    -22.47325422	     -4.80289577	    -15.94638559	      0.00000000	    -10.51021694	     -7.68643388	     -5.09797195	    -33.99087754	     -8.97610592	     -0.02248245	      0.00000000	     -6.32922815	      7.56382106	     -7.01411996	    -15.44558164	    -11.03552212	     44.34163700	     19.87698653	     44.51695580	      0.00000000	      0.00000000	      7.11669992	    -14.39748401	     12.89451984	     74.64121407	     44.51695580	      0.00000000	      0.00000000
      2.03000000	     -0.89350738	     -6.38538141	      2.51075911	      0.87257186	      0.92362562	     -0.29776508	     25.44350087	      9.24020380	     -5.85557345	    -23.63638734	     -3.60768071	    -16.31517417	      0.00000000	     -9.48676704	     -8.49048263	     -5.48976692	    -36.96756957	    -12.49622559	     -0.01591075	      0.00000000	     -6.66653492	      7.99950378	     -6.73765393	    -14.82290670	    -11.06440742	     44.35018428	     20.07868226	     44.51905816	      0.00000000	      0.00000000	      6.72073177	    -14.06493731	     12.96639860	     74.68346713	     44.51905816	      0.00000000	      0.00000000
      2.04000000	     -0.92672732	     -6.79750675	      2.22013679	      0.88604187	      0.92455319	     -0.29599828	     24.86733733	      9.98313549	     -5.47820381	    -24.19721408	     -2.63371349	    -16.48477158	      0.00000000	     -7.83239006	     -9.28446112	     -5.95273444	    -40.29593353	    -15.89492480	     -0.96616478	      0.00000000	     -6.72344444	      8.44210840	     -6.26748899	    -14.09251325	    -11.16260220	     44.42147097	     20.43984411	     44.52324333	      0.00000000	      0.00000000	      6.18899685	    -13.70106363	     12.98569645	     74.75554974	     44.52324333	      0.00000000	      0.00000000
      2.05000000	     -0.94631372	     -7.14338331	      2.10979602	      0.89914708	      0.92554438	     -0.29428620	     24.10370498	     10.55256492	     -5.40673184	    -24.40515627	     -1.55505065	    -16.38073179	      0.00000000	     -5.94318262	    -10.06921263	     -6.18733994	    -43.81794198	    -18.81400677	     -2.48645010	      0.00000000	     -6.80456135	      8.75314637	     -5.78335109	    -13.36762924	    -11.17041136	     44.51400260	     20.83904779	     44.52715709	      0.00000000	      0.00000000	      5.82077600	    -13.31181212	     13.06149586	     74.73849470	     44.52715709	      0.00000000	      0.00000000
      2.06000000	     -1.13302760	     -7.39344544	      2.17645448	      0.91156035	      0.92620826	     -0.29272743	     23.55841276	     10.92454951	     -5.57889978	    -24.60155216	     -0.43145723	    -16.06858426	      0.00000000	     -3.60279109	    -10.76909471	     -6.11117707	    -47.51947230	    -20.72227636	     -3.92310655	      0.00000000	     -6.73568443	      8.93191578	     -5.42736635	    -12.60661119	    -11.14962985	     44.68014053	     21.37341644	     44.53274657	      0.00000000	      0.00000000	      5.54886521	    -12.91427562	     13.16540911	     74.55181805	     44.53274657	      0.00000000	      0.00000000
      2.07000000	     -1.15477951	     -7.28838674	      2.09671889	      0.92455160	      0.92734561	     -0.29117998	     22.72156179	     10.95991053	     -5.62558122	    -24.77830377	      1.04325422	    -15.28342631	      0.00000000	     -1.78962861	    -11.10106599	     -6.32508074	    -50.52710688	    -21.22847194	     -4.66114707	      0.00000000	     -6.78917758	      8.69427837	     -4.84881988	    -11.91725752	    -11.29607602	     45.29524543	     22.47901738	     44.55455159	      0.00000000	      0.00000000	      5.48865498	    -12.48428430	     13.46506567	     73.59114424	     44.55455159	      0.00000000	      0.00000000
      2.08000000	     -1.16242296	     -7.15354796	      2.16703251	      0.93709601	      0.92857257	     -0.28976040	     21.77413058	     11.04727930	     -5.29921855	    -24.66936756	      2.09458830	    -15.37939331	      0.00000000	      0.04309636	    -11.41805089	     -6.43851640	    -53.27360478	    -20.87152183	     -5.63890967	      0.00000000	     -6.90713495	      8.40254684	     -4.40290497	    -10.89578691	    -11.14345598	     45.33087034	     22.79687462	     44.55684264	      0.00000000	      0.00000000	      5.25134080	    -12.17301261	     13.67912703	     73.37657479	     44.55684264	      0.00000000	      0.00000000
      2.09000000	     -1.22536558	     -6.90479259	      2.24161080	      0.94941563	      0.93010883	     -0.28857927	     20.65862654	     10.99767534	     -4.98591992	    -24.12357280	      3.02450539	    -15.41485874	      0.00000000	      2.05792862	    -11.15412003	     -5.88282964	    -55.88656014	    -19.53653418	     -7.26844661	      0.00000000	     -6.96201828	      8.00134293	     -3.94622983	     -9.85402203	    -10.96275924	     45.36225332	     23.12203016	     44.55860469	      0.00000000	      0.00000000	      4.98292719	    -11.88923581	     13.89694928	     73.04269681	     44.55860469	      0.00000000	      0.00000000
      2.10000000	     -1.22169870	     -6.27041968	      2.13671503	      0.96230771	      0.93207461	     -0.28725511	     19.67699937	     10.57643923	     -4.47027971	    -24.12841739	      3.90583346	    -15.31795324	      0.00000000	      3.80402377	    -10.23475641	     -5.33136563	    -57.96310194	    -18.54924700	     -8.55169438	      0.00000000	     -7.00714747	      7.17090270	     -3.40130344	     -8.83527584	    -11.17791751	     47.03285759	     23.87876171	     44.60518716	      0.00000000	      0.00000000	      5.67801343	    -11.99374315	     16.30668287	     69.59352985	     44.60518716	      0.00000000	      0.00000000
      2.11000000	     -1.21615950	     -5.93323720	      2.40476319	      0.97441703	      0.93379098	     -0.28670007	     18.65635032	     10.33627689	     -4.29531036	    -23.84869710	      4.66384835	    -15.35697275	      0.00000000	      5.87359944	     -9.73233120	     -4.51504311	    -60.13260797	    -16.40680603	     -9.34793678	      0.00000000	     -7.15056340	      6.71483981	     -3.25119110	     -7.57363157	    -11.00267346	     47.03626010	     24.15489982	     44.60760023	      0.00000000	      0.00000000	      5.28089362	    -11.74367590	     16.49968521	     69.23976569	     44.60760023	      0.00000000	      0.00000000
      2.12000000	     -1.41343899	     -5.57927591	      2.69312940	      0.98633974	      0.93515518	     -0.28637429	     18.05857598	      9.97605101	     -4.34138997	    -23.94048824	      5.48415937	    -15.02539315	      0.00000000	      8.16907301	     -9.19988075	     -3.75531807	    -61.99084302	    -14.36468477	    -10.05519963	      0.00000000	     -7.03430602	      6.26134011	     -3.24781137	     -6.18078099	    -10.95585970	     47.35862145	     24.57986009	     44.61646324	      0.00000000	      0.00000000	      4.95942910	    -11.52481197	     16.87001485	     67.80439171	     44.61646324	      0.00000000	      0.00000000
      2.13000000	     -1.51639685	     -5.24372650	      2.88466774	      0.99834484	      0.93680161	     -0.28599916	     17.11349383	      9.70741954	     -4.25931168	    -23.57103130	      6.06524753	    -14.96626110	      0.00000000	     10.20228870	     -8.42624785	     -2.89649751	    -63.41801119	    -12.74029194	    -10.41068665	      0.00000000	     -7.03327601	      5.83958468	     -3.16458240	     -4.72221209	    -10.95349490	     47.50944066	     24.98872692	     44.62099281	      0.00000000	      0.00000000	      4.41691821	    -11.29162486	     17.22823146	     66.85304049	     44.62099281	      0.00000000	      0.00000000
      2.14000000	     -1.62494327	     -4.94513293	      2.80947857	      1.01067246	      0.93845832	     -0.28522649	     15.85893787	      9.56165929	     -3.85578465	    -22.68129869	      6.62604222	    -14.76856086	      0.00000000	     12.07169707	     -7.81416991	     -2.47246078	    -64.44606216	    -11.36819835	    -10.83977704	      0.00000000	     -6.99020906	      5.42238103	     -2.73014578	     -3.43313027	    -10.89171520	     47.53688847	     25.33796162	     44.62262661	      0.00000000	      0.00000000	      3.87737942	    -10.97894837	     17.49284727	     66.34011409	     44.62262661	      0.00000000	      0.00000000
      2.15000000	     -1.71523882	     -4.62682411	      2.64782270	      1.02270058	      0.94004895	     -0.28434347	     14.76198323	      9.38352304	     -3.57975841	    -22.04716078	      7.06071944	    -14.66331516	      0.00000000	     13.91109476	     -7.21759691	     -2.22102111	    -65.20938773	    -10.09338939	    -11.08486820	      0.00000000	     -7.01396299	      5.00203596	     -2.23085769	     -2.05242839	    -10.86282782	     47.55286812	     25.72073436	     44.62394581	      0.00000000	      0.00000000	      3.18861269	    -10.79025844	     17.72010763	     65.71796155	     44.62394581	      0.00000000	      0.00000000
      2.16000000	     -1.85763903	     -4.28903570	      2.46789778	      1.03487927	      0.94151700	     -0.28346291	     13.64309258	      9.22028530	     -3.11963112	    -21.25357298	      7.36194309	    -14.86170195	      0.00000000	     15.69474956	     -6.61441297	     -1.93330504	    -65.58921603	     -8.52806743	    -10.49202002	      0.00000000	     -6.86870682	      4.56736544	     -1.90338404	     -0.52826679	    -11.57918908	     49.67506103	     27.67014660	     44.64925275	      0.00000000	      0.00000000	      3.79008523	    -10.39754808	     19.71213280	     60.30729204	     44.64925275	      0.00000000	      0.00000000
      2.17000000	     -2.03796893	     -4.04229906	      2.23211528	      1.04683840	      0.94269590	     -0.28231409	     12.52144520	      9.11382726	     -2.71558289	    -20.40664555	      7.74285626	    -14.58468914	      0.00000000	     17.44018905	     -6.09809469	     -1.80871486	    -65.64228755	     -7.09103847	    -10.76966523	      0.00000000	     -6.73609733	      4.17604020	     -1.28671307	      0.90592517	    -11.50705269	     49.61249066	     27.96393833	     44.65043656	      0.00000000	      0.00000000	      2.99335696	    -10.22121560	     19.96022249	     59.97790918	     44.65043656	      0.00000000	      0.00000000
      2.18000000	     -2.04351017	     -3.70017421	      1.98060529	      1.05888772	      0.94395223	     -0.28130741	     11.31757054	      8.93716001	     -2.09682632	    -19.74451072	      8.15192002	    -14.56763392	      0.00000000	     18.85669817	     -5.60357525	     -1.92651039	    -65.33430794	     -5.33441621	    -10.64233963	      0.00000000	     -6.81838082	      3.74986409	     -1.16790475	      2.66156000	    -11.50507818	     49.77957740	     28.60717289	     44.65424309	      0.00000000	      0.00000000	      1.91880010	    -10.25248774	     20.33980088	     58.78700800	     44.65424309	      0.00000000	      0.00000000
